<svg width="205px" height="52px" viewBox="0 0 205 52" version="1.1" xmlns="http://www.w3.org/2000/svg" xmlns:xlink="http://www.w3.org/1999/xlink">
    <!-- Generator: Sketch 54.1 (76490) - https://sketchapp.com -->
    <title>Group_16128</title>
    <desc>Created with Sketch.</desc>
    <g id="Page-1" stroke="none" stroke-width="1" fill="none" fill-rule="evenodd">
        <g id="Artboard" transform="translate(-970.000000, -135.000000)" fill-rule="nonzero">
            <g id="Group-16333" transform="translate(890.000000, 135.000000)">
                <g id="Group_16128" transform="translate(79.782000, 0.000000)">
                    <path d="M129.1385,48.714 C130.656094,49.3569662 132.254063,49.7906046 133.8885,50.003 C137.1125,50.5195 138.676,51.264 142.4205,51.495 C145.586,51.7685 149.2205,51.6535 150.406,51.665 C152.523,51.754 155.744,51.758 157.86,51.691 C162.9945,51.53 167.5485,51.38 172.6825,51.016 C175.126,50.842 177.417,50.347 179.8605,49.9915 C181.9375,49.6915 184.391,49.453 186.4675,49.0715 C190.2085,48.3845 194.2595,47.0715 197.999,46.275 C199.6665,45.9195 201.349,45.2355 203.0155,44.821 C204.2455,44.468 204.372,44.121 205.2575,43.065 C204.309595,42.6967436 203.301921,42.5063958 202.285,42.5035 C201.2905,42.526 200.743,42.536 200.135,42.526 C198.712,42.5025 197.635,42.532 196.212,42.609 C191.3455,43.0905 184.732,42.909 183.1855,43.009 C180.7415,43.167 178.1895,42.9665 175.7455,43.0685 C174.7285,43.111 172.507,43.187 171.49,43.237 C169.086,43.3555 166.8305,43.4455 164.427,43.468 C159.902,43.51 156.127,43.6785 151.602,43.5945 C149.688,43.559 148.247,43.4065 146.3335,43.38 C142.9525,43.333 140.2835,42.3475 135.9835,42.945 C134.667969,43.1307759 133.37051,43.4275004 132.105,43.832 C131.221,44.153 129.9015,45.156 129.0235,45.6945 C128.665,45.9145 127.578,48.212 129.142,48.7165" id="Path_656" fill="#FFC007"></path>
                    <path d="M0.2175,29.5355 C1.7695,28.2198333 3.592,26.609 5.685,24.703 C7.778,22.797 9.906,20.8571667 12.069,18.8835 C14.2316667,16.9075 16.301,14.9908333 18.277,13.1335 C20.253,11.2761667 21.8755,9.7125 23.1445,8.4425 L4.45,8.4425 C2.898,8.4425 1.8045,8.13683333 1.1695,7.5255 C0.492237882,6.80383411 0.146976722,5.83220939 0.217,4.845 C0.211652372,4.07818653 0.33087083,3.31559367 0.57,2.587 C0.727024106,2.08185595 0.915560506,1.58705227 1.1345,1.1055 L29.846,1.1055 C31.0049296,1.0431352 32.1502769,1.37945197 33.0915,2.0585 C33.8915,2.69183333 34.2915,3.66766667 34.2915,4.986 C34.2961831,5.86108152 34.0776303,6.72290229 33.6565,7.49 C32.9904398,8.56850804 32.1833027,9.55321535 31.2565,10.418 C30.5035,11.1706667 29.5746667,12.0756667 28.47,13.133 C27.3653333,14.1903333 26.1776667,15.307 24.907,16.483 C23.637,17.6593333 22.3203333,18.8701667 20.957,20.1155 C19.5936667,21.3608333 18.277,22.5608333 17.007,23.7155 C15.737,24.8678333 14.537,25.9378333 13.407,26.9255 C12.277,27.9131667 11.313,28.7595 10.515,29.4645 L34.359,29.4645 L34.359,36.519 L0.2175,36.519 L0.2175,29.5355 Z" id="Path_657" fill="#7B1FA1"></path>
                    <path d="M70.9025,33.909 C70.5258333,34.145 69.938,34.4741667 69.139,34.8965 C68.1770181,35.3856747 67.1729695,35.7872941 66.139,36.0965 C64.7737613,36.5126704 63.3836794,36.8424892 61.977,37.084 C60.2643396,37.3775602 58.5290974,37.5192775 56.7915,37.5075 C54.2839597,37.5276313 51.7912026,37.1218651 49.4195,36.3075 C47.1974855,35.543926 45.1564563,34.3310863 43.4235,32.7445 C41.6758298,31.1264457 40.293111,29.1544692 39.3675,26.96 C38.3384629,24.4677993 37.833974,21.790298 37.8855,19.0945 C37.8519352,16.4493307 38.3435966,13.8237942 39.332,11.37 C40.2457696,9.11610003 41.6146221,7.07490634 43.353,5.374 C45.0954917,3.68792921 47.1585294,2.36856439 49.42,1.494 C51.8615924,0.556368166 54.4587228,0.0898076318 57.074,0.119 C59.27455,0.0814165291 61.4665454,0.402278725 63.564,1.069 C65.2915459,1.62150412 66.9048669,2.48203231 68.326,3.609 C70.8255865,5.60032208 72.2695252,8.6313025 72.241,11.827 C72.2623546,13.3690237 71.9495185,14.8973831 71.324,16.307 C70.6116845,17.7573028 69.4814998,18.9611498 68.079,19.7635 C66.1325468,20.873599 64.0081861,21.637435 61.8005,22.021 C58.496047,22.6194817 55.1406918,22.8911257 51.783,22.832 C50.842,22.832 49.9601667,22.8203333 49.1375,22.797 C48.3148333,22.7736667 47.433,22.7381667 46.492,22.6905 C46.8269932,25.0210573 48.0856994,27.1187809 49.9845,28.511 C51.9348333,29.9923333 54.7213333,30.733 58.344,30.733 C59.478836,30.740635 60.6120616,30.6462553 61.73,30.451 C62.6753856,30.2858691 63.607013,30.0498702 64.517,29.745 C65.2381112,29.5035504 65.9447728,29.2209192 66.6335,28.8985 C67.2208333,28.6165 67.6558333,28.4048333 67.9385,28.2635 L70.9025,33.909 Z M46.1415,17.1895 C47.2228333,17.2371667 48.2573333,17.2606667 49.245,17.26 L52.208,17.26 C54.3120797,17.3004687 56.4150777,17.1351829 58.487,16.7665 C59.7919261,16.5407018 61.0535057,16.1121898 62.226,15.4965 C62.9883851,15.1138877 63.6068877,14.4953851 63.9895,13.733 C64.2691594,13.0873326 64.413301,12.3911303 64.413,11.6875 C64.4945093,10.0526986 63.6677225,8.50622272 62.263,7.666 C60.6493587,6.72604934 58.8028298,6.26151379 56.9365,6.326 C55.3595009,6.29273324 53.7943966,6.60575411 52.3515,7.243 C51.0886285,7.81439027 49.9591409,8.64345328 49.0355,9.677 C48.1332171,10.7032865 47.4277719,11.8870514 46.9545,13.169 C46.4667336,14.4559754 46.1927828,15.8140753 46.1435,17.1895 L46.1415,17.1895 Z" id="Path_658" fill="#7B1FA1"></path>
                    <path d="M75.7705,15.144 C75.733397,12.968741 76.1790942,10.812318 77.0755,8.83 C77.9167684,7.01114954 79.1454443,5.39817116 80.6755,4.104 C82.2753293,2.77128516 84.1205041,1.76453276 86.107,1.1405 C88.3315609,0.43904363 90.6530906,0.0939445399 92.9855,0.118 C95.3290741,0.0959742243 97.6616489,0.440984741 99.8985,1.1405 C101.898037,1.75944079 103.755953,2.7664705 105.366,4.104 C106.891126,5.39390587 108.108353,7.00867492 108.9285,8.83 C109.801615,10.8186267 110.234665,12.9724519 110.198,15.144 L110.198,36.519 L102.1545,36.519 L102.1545,17.19 C102.1545,13.9926667 101.378333,11.5593333 99.826,9.89 C98.2736667,8.22066667 95.9928333,7.386 92.9835,7.386 C89.9255,7.386 87.6326667,8.22066667 86.105,9.89 C84.5773333,11.5593333 83.8131667,13.9926667 83.8125,17.19 L83.8125,36.5195 L75.7705,36.5195 L75.7705,15.144 Z" id="Path_659" fill="#7B1FA1"></path>
                    <path d="M116.2625,4.8445 C116.2625,3.52883333 116.638833,2.5765 117.3915,1.9875 C118.321157,1.34655376 119.43895,1.03598741 120.566,1.1055 C121.353363,1.09728749 122.137684,1.20442419 122.894,1.4235 C123.599333,1.63483333 124.069667,1.78766667 124.305,1.882 L124.305,36.5195 L116.2625,36.5195 L116.2625,4.8445 Z" id="Path_660" fill="#7B1FA1"></path>
                    <path d="M130.442,4.8445 C130.442,3.52883333 130.818167,2.5765 131.5705,1.9875 C132.50019,1.34662476 133.617958,1.03606535 134.745,1.1055 C135.532362,1.09730187 136.316681,1.20443829 137.073,1.4235 C137.778333,1.63483333 138.248667,1.78766667 138.484,1.882 L138.484,20.4355 C138.484,23.6355 139.2365,26.0688333 140.7415,27.7355 C142.2465,29.4021667 144.550833,30.237 147.6545,30.24 C150.758833,30.24 153.063333,29.4051667 154.568,27.7355 C156.072667,26.0658333 156.825333,23.6325 156.826,20.4355 L156.826,4.8445 C156.826,3.52883333 157.202167,2.5765 157.9545,1.9875 C158.860607,1.35294436 159.954105,1.04222755 161.0585,1.1055 C161.869706,1.09424662 162.678217,1.20137423 163.4585,1.4235 C164.163833,1.63483333 164.634,1.78766667 164.869,1.882 L164.869,22.199 C164.904943,24.4125456 164.484894,26.6097995 163.635,28.654 C162.844683,30.5135415 161.638026,32.166835 160.108,33.4865 C158.506386,34.8448719 156.646611,35.8653241 154.6405,36.4865 C150.084655,37.8510912 145.228845,37.8510912 140.673,36.4865 C138.675302,35.8706724 136.826106,34.8493935 135.241,33.4865 C133.724251,32.1545356 132.519829,30.504538 131.7135,28.654 C130.840284,26.615804 130.407665,24.4160767 130.444,22.199 L130.442,4.8445 Z" id="Path_661" fill="#7B1FA1"></path>
                    <path d="M171.5695,27.7 C172.128838,28.0577599 172.719216,28.3644952 173.3335,28.6165 C174.358248,29.0605402 175.406089,29.4492659 176.4725,29.781 C177.870507,30.2175939 179.296423,30.5592057 180.7405,30.8035 C182.465039,31.0962165 184.211829,31.2379204 185.961,31.227 C188.002122,31.2955622 190.037521,30.9731026 191.9575,30.277 C193.509833,29.6436667 194.285833,28.55 194.2855,26.996 C194.349621,25.805864 193.787977,24.6685503 192.804,23.996 C191.816667,23.3143333 190.053,22.8321667 187.513,22.5495 L182.013,21.9145 C180.254301,21.7512198 178.516922,21.408435 176.828,20.8915 C175.371491,20.4571376 173.999799,19.7773786 172.772,18.8815 C171.659166,18.0537503 170.753584,16.9790667 170.1265,15.742 C169.458164,14.3455288 169.131674,12.8100829 169.174,11.2625 C169.166241,9.79385376 169.466536,8.33990099 170.0555,6.9945 C170.685082,5.60051009 171.641016,4.37858139 172.8425,3.432 C174.318936,2.29533977 176.009484,1.46817723 177.813,1 C180.24137,0.364622582 182.745885,0.0678161483 185.2555,0.118 C190.145833,0.118 193.943333,0.658833333 196.648,1.7405 C199.352667,2.82216667 200.704833,4.23316667 200.7045,5.9735 C200.715958,6.48520469 200.607212,6.99246125 200.387,7.4545 C200.190516,7.85382334 199.954147,8.23224926 199.6815,8.584 C199.447317,8.88853057 199.174531,9.16131747 198.87,9.3955 C198.677687,9.55373801 198.4641,9.68417894 198.2355,9.783 C197.851121,9.45255278 197.437788,9.15736257 197.0005,8.901 C196.184319,8.41615522 195.321692,8.01415468 194.4255,7.701 C193.160485,7.25167201 191.863502,6.89801022 190.5455,6.643 C188.824797,6.3177629 187.076053,6.16417622 185.325,6.1845 C179.869,6.1845 177.141167,7.61866667 177.1415,10.487 C177.097861,11.6323943 177.695422,12.7068479 178.6915,13.274 C180.065922,14.0138465 181.579771,14.4583448 183.136,14.579 L190.3315,15.496 C194.234167,16.0136667 197.2675,17.0835 199.4315,18.7055 C201.5955,20.3275 202.677167,22.7143333 202.6765,25.866 C202.767169,29.209181 201.194983,32.3799584 198.479,34.3315 C195.679,36.4475 191.645667,37.5056667 186.379,37.506 C184.062435,37.5245886 181.74886,37.3356673 179.466,36.9415 C177.640268,36.6246058 175.837244,36.1885062 174.0685,35.636 C172.800472,35.2451874 171.562818,34.7618907 170.3655,34.19 C169.721879,33.8965228 169.107758,33.5422478 168.5315,33.132 L171.5695,27.7 Z" id="Path_662" fill="#7B1FA1"></path>
                </g>
            </g>
        </g>
    </g>
</svg>